<?xml version="1.0" encoding="utf-8"?>
<!-- Generator: Adobe Illustrator 24.2.3, SVG Export Plug-In . SVG Version: 6.00 Build 0)  -->
<svg version="1.1" id="Layer_1" xmlns="http://www.w3.org/2000/svg" xmlns:xlink="http://www.w3.org/1999/xlink" x="0px" y="0px"
	 viewBox="0 0 1184.3 632" style="enable-background:new 0 0 1184.3 632;" xml:space="preserve">
<style type="text/css">
	.st0{fill:#606060;}
	.st1{fill:#565656;}
	.st2{fill:#5A5A5A;}
	.st3{fill:#3F3F3F;}
	.st4{fill:#16A4DE;}
	.st5{fill:#2B2B2B;}
	.st6{fill:#0B80AD;}
	.st7{fill:#FFFFFF;}
	.st8{fill:#E9E9E9;}
	.st9{fill:#AAAAAA;}
	.st10{fill:#EAEAEA;}
</style>
<g>
	<circle class="st0" cx="201.4" cy="415.8" r="43.4"/>
</g>
<g>
	<g>
		<g>
			<path class="st1" d="M332.8,352.1c2.1,0,4.3,0.7,6.1,2.1l102.5,77.6c4.2,3.4,5.3,12.2,0.7,17.5c-4.7,5.5-11.6,6.6-15.9,3.3
				l-99.5-83c-4.2-3.4-5-9.5-1.6-13.8C327.1,353.4,329.9,352.1,332.8,352.1z"/>
		</g>
	</g>
	<g>
		<path class="st2" d="M358.5,373.5h-56.2c-6.6,0-12-5.4-12-12v-5.1c0-6.6,5.4-12,12-12h56.2c6.6,0,12,5.4,12,12v5.1
			C370.5,368.1,365.1,373.5,358.5,373.5z"/>
	</g>
</g>
<g>
	<path class="st2" d="M196.4,245.8c-94.1,0-170.5,76.3-170.5,170.5s76.3,170.5,170.5,170.5s170.5-76.3,170.5-170.5
		S290.5,245.8,196.4,245.8z M196.4,548.8c-73.2,0-132.5-59.3-132.5-132.5s59.3-132.5,132.5-132.5s132.5,59.3,132.5,132.5
		S269.6,548.8,196.4,548.8z"/>
</g>
<g>
	<path class="st3" d="M196.4,276.2c-77.4,0-140.1,62.7-140.1,140.1S119,556.3,196.4,556.3s140.1-62.7,140.1-140.1
		S273.7,276.2,196.4,276.2z M196.4,548.4c-73,0-132.1-59.2-132.1-132.1s59.2-132.1,132.1-132.1s132.1,59.2,132.1,132.1
		S269.3,548.4,196.4,548.4z"/>
</g>
<g>
	<path class="st3" d="M196.4,232.3c-88,0-161,64.1-174.8,148.2L39.9,367c18.7-68.9,81.6-119.6,156.4-119.6
		c88.3,0,160.1,70.6,162,158.3l0,0l15.1,3.6C373.5,311.6,294.2,232.3,196.4,232.3z"/>
</g>
<g>
	<path class="st4" d="M912.7,360.8l1.3,7.2c-7.6-2.8-15.5-4.8-23.8-5.9c-4.7-0.6-9.5-0.9-14.3-0.9c-13.2,0-25.9,2.3-37.6,6.6
		c-4.7-0.2-9.7-0.3-14.9-0.5c-13.2-0.4-27.6-0.9-42-1.4c-41.3-1.4-81.9-3-87.6-4.1c-12.2-2.2-9.1-18.8-6.3-19.4
		c2.3-0.5,12.3-0.6,15.6-0.6c0,0,0,0,0,0c0.6,0,1,0,1,0L905.9,323l1.9,10.3L912.7,360.8z"/>
</g>
<g>
	<path class="st4" d="M1145.3,454c-3.2,1.1-66.5,2.2-128.7,2.6c-8.5,0.1-17,0.1-25.3,0.1c-2.2,0-4.3,0-6.4,0
		c-0.7-5.2-1.7-10.4-3.1-15.3c-0.9-3.2-1.9-6.4-3.1-9.5c2.2,0,4.5,0.1,6.9,0.1c8.4,0.2,17.4,0.4,26.5,0.6
		c49.3,1.1,105.5,2.3,127.2,2.7c4,0.1,6.8,0.1,8.2,0.2C1164.1,435.8,1151.6,451.8,1145.3,454z"/>
</g>
<g>
	<g>
		<path class="st5" d="M710.2,161.7l-4-0.1c0-0.7,1.1-69.9-2.3-89.1C700.8,54.7,671.3,54,671,54l0.1-4c1.4,0,33.1,0.9,36.8,21.9
			C711.4,91.5,710.3,158.9,710.2,161.7z"/>
	</g>
</g>
<g>
	<path class="st4" d="M770.8,421.2c-9.3,0.1-18.6,0.2-27.4,0.3c-31.9,0.2-57.7,0.3-58.8-0.3c-1.1-0.5-1.7-37.8-2-85.8
		c0-2,0-4.1,0-6.2c0,0,0,0,0,0c-0.3-54.5-0.3-120.9-0.3-162.9c0-2.9,0-5.7,0-8.3c0-20.2,0.1-33,0.1-33h-20.8L658.2,255l-257.7,51.5
		L366,194.1l-18.8,4.8l4.6,13.8c0,0-153.4,185.7-154.5,189.1c-1.2,3.5,8.1,27.7,12.7,27.7s179.9,12.7,179.9,12.7v-14.8
		c0.5,2.3,1.3,4.4,2.5,5.5c2.7,2.5,108.4,18.9,108.4,18.9s130.1-1.4,235.4-2.7c8.7-0.1,17.3-0.2,25.6-0.3c2.2,0,4.4-0.1,6.5-0.1
		c2-9.7,5.3-19,9.7-27.5C775.5,421.2,773.2,421.2,770.8,421.2z M409.3,403.1c-0.6,1.7-17,15.6-18.9,17.3c-0.6,0.5-0.9,1.9-1,3.4
		c-8.6-0.4-161.2-6.9-164.5-8c-3.5-1.2-8.1-16.1-6.9-18.5c1.2-2.3,141.2-159,141.2-159S409.9,401.4,409.3,403.1z M512.9,424.8
		c0,0-2.4-5.2-19.5-16.6c-17.1-11.4-50.8-19.5-53.2-19.2c-2.4,0.3-12.1,3.6-12.1,3.6l-18.8-62l252-48.2l0.7,139.4L512.9,424.8z"/>
</g>
<g>
	<path class="st6" d="M682.6,341.1c-3.8-0.9-14.6-4.7-14.6-14.2c0-9.6-1.5-149.5-1.1-158.6c0.9-21.6,11.5-10.2,11.5-10.2
		c1.2-0.3,2.5-0.3,4-0.1C682.3,200.6,682.2,281.8,682.6,341.1z"/>
</g>
<g>
	<path class="st4" d="M1170.4,161.5c0,0-7.3,204.6-9.3,231c-1.7,22.9-9.3,37-21.9,42.8c-1.9,0.9-3.9,1.6-6,2.1
		c-8.2,2-64.5,4.2-119,4.3c-8.7,0-17.4,0-25.8-0.2c-2.2,0-4.5-0.1-6.6-0.1c-0.9-3.2-1.9-6.4-3.1-9.5c-11.3-29.5-34.9-53-64.6-63.9
		c-7.6-2.8-15.5-4.8-23.8-5.9c-0.5-2.4-1-4.6-1.5-6.6h0c-1.4-6-2.6-9.9-3.5-10.4c-2-1.2-34.9-1.2-71.5-1
		c-36.1,0.2-75.8,0.5-92.6,0.1c-7.1-0.2-13.1-1-18.1-2.3c0,0,0,0,0,0c-10.7-2.8-16.9-7.6-20.5-12.6c0,0,0,0,0,0
		c-2.7-3.7-4-7.4-4.9-10.5c-2.5-9.3-2.5-152.3-2.5-152.3l7.1-0.1L1170.4,161.5z"/>
</g>
<g>
	<path class="st2" d="M1168.2,166.2H675c-2.8,0-5.1-2.3-5.1-5.1v-1.6c0-2.8,2.3-5.1,5.1-5.1h493.2c2.8,0,5.1,2.3,5.1,5.1v1.6
		C1173.3,163.9,1171,166.2,1168.2,166.2z"/>
</g>
<g>
	<path class="st7" d="M862.1,417.9c0,0-0.5,0-1.4,0c0.1-0.2,0.2-0.3,0.3-0.3C863.2,417.9,861.3,417.9,862.1,417.9z"/>
</g>
<g>
	<path class="st5" d="M316.3,119c1.1,0.6,9.7,5.4,9.7,5.4s15.8-4.8,16.4-5.1s23.9-26.1,23.9-26.1s-26.7,0.5-31.5,0.8
		c-4.8,0.3-38.4,6.3-38.4,6.3s7.7,12,9.4,12.1C307.5,112.5,315.2,118.4,316.3,119z"/>
</g>
<g>
	<path class="st3" d="M403.7,90.5c-2.4,1-44.5,3-51.3,4c-6.8,1-22.8,8.9-28.1,10.3c-2.3,0.6-5.8,0.8-10.1,0.6
		c-5.6-0.3-12.5-1.3-20.1-3.3c-13.4-3.4-25.9-13-26.8-15.2c-0.5-1.3-0.6-2.8-0.4-4.3c0.4-2.6,2.1-5.2,5.5-6.4
		c5.2-1.9,45.8,1.3,63.4,1.9c13.8,0.5,39-3.4,53.2-1.5C403.2,78.6,406.1,89.5,403.7,90.5z"/>
</g>
<g>
	<path class="st5" d="M314.2,105.4c-5.6-0.3-12.5-1.3-20.1-3.3c-13.4-3.4-25.9-13-26.8-15.2c-0.5-1.3-0.6-2.8-0.4-4.3
		c3.5-0.9,9.4-2.1,15.7-1.1c9.7,1.5,20.2,4.3,24.5,9.5C310.5,95.2,313.3,100.6,314.2,105.4z"/>
</g>
<g>
	<path class="st8" d="M862.1,417.9c0,0-0.5,0-1.4,0c0.1-0.2,0.2-0.3,0.3-0.3C863.2,417.9,861.3,417.9,862.1,417.9z"/>
</g>
<g>
	<polygon class="st2" points="347.2,198.9 324.8,122.9 340.8,118.3 366,194.1 	"/>
</g>
<g>
	<path class="st3" d="M667.2,89.6c0-0.4-0.4-19.2-0.4-19.2s-36-34.2-41.5-40.4c-5.5-6.2,2.8-18.9,12.8-11
		c10,7.9,45.7,42.7,47.6,46.1c1.9,3.4,0.9,6.8-1.1,8.3s-6.2,1.9-6.2,1.9l0.6,14.5c0,0-4.3,3.1-5.9,2.7S667.3,90.2,667.2,89.6z"/>
</g>
<g>
	<path class="st2" d="M391.6,426.7c4.6-4.6,19.6-22.6,32.3-25.6s46.8,2.1,54.9,5.4c8.1,3.3,25.9,19.6,26.2,25.6s-5.4,22.6-7.5,25.9
		s-33.8,17.8-43.4,19.6c-9.7,1.8-47.7-3.9-51-5.7s-10.3-8.1-11.5-12.4S387.3,430.9,391.6,426.7z"/>
</g>
<g>
	<circle class="st3" cx="432.9" cy="442" r="20.4"/>
</g>
<g>
	<g>
		<path class="st9" d="M531.9,532.3c-2.1,0-4.3-0.7-6.1-2.1l-102.5-77.6c-4.2-3.4-5.3-12.2-0.7-17.5c4.7-5.5,11.6-6.6,15.9-3.3
			l99.5,83c4.2,3.4,5,9.5,1.6,13.8C537.7,531.1,534.8,532.3,531.9,532.3z"/>
	</g>
</g>
<g>
	<path class="st2" d="M564.6,544.6h-56.2c-6.6,0-12-5.4-12-12v-5.1c0-6.6,5.4-12,12-12h56.2c6.6,0,12,5.4,12,12v5.1
		C576.6,539.2,571.2,544.6,564.6,544.6z"/>
</g>
<g>
	<circle class="st3" cx="201.4" cy="415.8" r="17.6"/>
</g>
<g>
	<path class="st10" d="M201.7,525.8c-61,0-110.6-49.6-110.6-110.6c0-1.9,1.6-3.5,3.5-3.5s3.5,1.6,3.5,3.5
		c0,57.1,46.5,103.6,103.6,103.6c1.9,0,3.5,1.6,3.5,3.5S203.6,525.8,201.7,525.8z"/>
</g>
<g>
	<path class="st10" d="M879.2,564.6c-52.5,0-95.1-42.7-95.1-95.1c0-1.9,1.6-3.5,3.5-3.5s3.5,1.6,3.5,3.5c0,48.6,39.5,88.1,88.1,88.1
		c1.9,0,3.5,1.6,3.5,3.5S881.1,564.6,879.2,564.6z"/>
</g>
<g>
	<polygon class="st3" points="661.6,125 662.7,89.7 682.9,90.1 683.9,124.4 682.4,125 	"/>
</g>
<g>
	<g>
		<circle class="st0" cx="879" cy="469.2" r="34.5"/>
	</g>
</g>
<g>
	<circle class="st3" cx="879" cy="469.2" r="17.6"/>
</g>
<g>
	<path class="st2" d="M1016.6,456.6c-0.5-5.1-1.3-10-2.3-14.9c-0.6-3.1-1.4-6.1-2.2-9.1c-13.9-49.3-54-87.7-104.3-99.3
		c-10.2-2.4-20.9-3.6-31.9-3.6c-22.3,0-43.4,5.2-62.2,14.4c-11.8,5.8-22.7,13.2-32.3,21.8c-16.8,15.1-29.9,34.1-38,55.6
		c-3.3,8.8-5.8,18-7.3,27.6c-1.1,7.2-1.7,14.6-1.7,22.1c0,78.1,63.3,141.4,141.5,141.4c78.1,0,141.4-63.3,141.4-141.4
		C1017.3,466.3,1017.1,461.4,1016.6,456.6z M875.9,581.2c-60.7,0-110-49.2-110-110c0-7.7,0.8-15.2,2.3-22.5c2-9.7,5.3-19,9.7-27.5
		c12.6-24.6,34.2-43.8,60.4-53.3c11.7-4.3,24.4-6.6,37.6-6.6c4.9,0,9.6,0.3,14.3,0.9c8.3,1.1,16.2,3.1,23.8,5.9
		c29.7,11,53.4,34.4,64.6,63.9c1.2,3.1,2.3,6.3,3.1,9.5c1.4,5,2.4,10.1,3.1,15.3c0.6,4.7,0.9,9.5,0.9,14.4
		C985.9,531.9,936.6,581.2,875.9,581.2z"/>
</g>
<g>
	<path class="st3" d="M991.3,456.8c-0.6-5.2-1.6-10.3-2.9-15.2c-0.8-3.2-1.8-6.4-2.9-9.5c-12-33.5-38.9-60-72.8-71.3
		c-7.7-2.6-15.7-4.3-24-5.3h0c-4.2-0.5-8.5-0.7-12.8-0.7c-18.9,0-36.7,4.5-52.5,12.5c-23,11.6-41.6,30.6-52.6,53.9
		c-4.1,8.6-7.2,17.9-9.1,27.5c-1.4,7.3-2.2,14.7-2.2,22.4c0,64.3,52.1,116.3,116.3,116.3s116.3-52.1,116.3-116.3
		C992.2,466.3,991.9,461.5,991.3,456.8z M875.9,581.2c-60.7,0-110-49.2-110-110c0-7.7,0.8-15.2,2.3-22.5c2-9.7,5.3-19,9.7-27.5
		c12.6-24.6,34.2-43.8,60.4-53.3c11.7-4.3,24.4-6.6,37.6-6.6c4.9,0,9.6,0.3,14.3,0.9c8.3,1.1,16.2,3.1,23.8,5.9
		c29.7,11,53.4,34.4,64.6,63.9c1.2,3.1,2.3,6.3,3.1,9.5c1.4,5,2.4,10.1,3.1,15.3c0.6,4.7,0.9,9.5,0.9,14.4
		C985.9,531.9,936.6,581.2,875.9,581.2z"/>
</g>
<g>
	<path class="st3" d="M878.9,318.4c-86,0-155.8,69.7-155.8,155.8c0,18.5,3.2,36.3,9.2,52.8l5.9-33.9c-0.8-6.1-1.2-12.4-1.2-18.8
		c0-78.4,63.5-141.9,141.9-141.9c15.1,0,29.6,2.3,43.2,6.7l24.5-5.1C926.1,324,903.2,318.4,878.9,318.4z"/>
</g>
</svg>
