<?xml version="1.0" encoding="utf-8"?>
<!-- Generator: Adobe Illustrator 24.2.3, SVG Export Plug-In . SVG Version: 6.00 Build 0)  -->
<svg version="1.1" id="Layer_1" xmlns="http://www.w3.org/2000/svg" xmlns:xlink="http://www.w3.org/1999/xlink" x="0px" y="0px"
	 viewBox="0 0 975.3 580" style="enable-background:new 0 0 975.3 580;" xml:space="preserve">
<style type="text/css">
	.st0{fill:#969696;}
	.st1{fill:#5A5A5A;}
	.st2{fill:#AAAAAA;}
	.st3{fill:#16A4DE;}
	.st4{fill:#EAEAEA;}
	.st5{fill:#3F3F3F;}
	.st6{fill:#2B2B2B;}
</style>
<g>
	<circle class="st0" cx="197.9" cy="387.4" r="62.8"/>
	<path class="st1" d="M234.9,387.4c0,20.5-16.6,37-37,37s-37-16.6-37-37c0-20.5,16.6-37,37-37S234.9,367,234.9,387.4z"/>
	<path class="st1" d="M197.9,212.4c-96.6,0-175,78.3-175,175c0,96.6,78.3,175,175,175s175-78.3,175-175
		C372.9,290.8,294.5,212.4,197.9,212.4z M197.9,527c-77.1,0-139.6-62.5-139.6-139.6c0-77.1,62.5-139.6,139.6-139.6
		s139.6,62.5,139.6,139.6C337.5,464.5,275,527,197.9,527z"/>
	<path class="st2" d="M197.9,234.5c-84.5,0-153,68.5-153,153c0,84.5,68.5,153,153,153s153-68.5,153-153
		C350.9,302.9,282.4,234.5,197.9,234.5z M197.9,527c-77.1,0-139.6-62.5-139.6-139.6c0-77.1,62.5-139.6,139.6-139.6
		s139.6,62.5,139.6,139.6C337.5,464.5,275,527,197.9,527z"/>
	<g>
		<path class="st3" d="M178.8,360.3c-2.5,0-5.1-0.5-7.6-1.9c-5-2.8-135.4-127.8-136.6-129c-3.7-3.7-6-8.5-6.4-13.5
			c-0.3-4.5,0.9-8.7,3.4-11.2c3.3-3.3,17-13.5,31.5-19.4c9.5-3.8,65.1-4.9,131.4-5.8c21.5-0.3,38.5-0.5,43.4-0.9
			c17.2-1.4,98.3,8.7,108,10.8c6,1.3,10.8,5.6,12.8,11.5c1.7,5,1.2,10.2-1.6,13.5c-2.3,2.9-44.9,40.5-82.7,73.2
			c-81.1,70-86.4,71.2-88.4,71.6v0C184.1,359.8,181.5,360.3,178.8,360.3z M175.2,351.6c2.4,1.3,5.4,0.8,9,0
			c3.9-1.7,28.4-21,85.7-70.5c40.7-35.2,78.8-69,81.1-71.7c0.7-0.9,1-3.2,0.2-5.7c-0.5-1.6-2.3-5.3-7-6.3c-9.4-2-89.5-12-105.7-10.7
			c-5.2,0.4-22.3,0.6-43.9,0.9c-44.7,0.6-119.6,1.6-128.5,5.2c-13,5.3-26.1,14.9-28.8,17.6c-0.5,0.5-1.2,2.3-1,4.9
			c0.2,3,1.7,6,4.1,8.4C47.3,230.8,168.2,346.2,175.2,351.6z"/>
	</g>
	<path class="st3" d="M51.7,199.5c0.4,0.5,254.8-8.3,254.8-8.3l-70-8.3c0,0-163.9,4.5-171,6.6S50.9,198.5,51.7,199.5z"/>
	<g>
		<path class="st1" d="M739.9,230.5l-4.9-0.7c0.1-0.8,11.6-78,7.8-115.5c-3.7-36-38.4-46.5-39.9-46.9l1.4-4.8
			c0.4,0.1,39.5,11.8,43.5,51.2C751.6,151.9,740.4,227.3,739.9,230.5z"/>
	</g>
	<path class="st0" d="M788.9,329.5c-32,0-58,25.9-58,58c0,32,25.9,58,58,58c32,0,58-26,58-58C846.9,355.4,820.9,329.5,788.9,329.5z
		 M788.9,439.2c-28.6,0-51.8-23.2-51.8-51.8c0-28.6,23.2-51.8,51.8-51.8c28.6,0,51.8,23.2,51.8,51.8
		C840.7,416,817.5,439.2,788.9,439.2z"/>
	<path class="st1" d="M788.9,212.4c-96.6,0-175,78.3-175,175c0,96.6,78.3,175,175,175s175-78.3,175-175
		C963.9,290.8,885.6,212.4,788.9,212.4z M788.9,527c-77.1,0-139.6-62.5-139.6-139.6c0-77.1,62.5-139.6,139.6-139.6
		s139.6,62.5,139.6,139.6C928.6,464.5,866,527,788.9,527z"/>
	<path class="st2" d="M788.9,234.5c-84.5,0-153,68.5-153,153c0,84.5,68.5,153,153,153s153-68.5,153-153
		C941.9,302.9,873.4,234.5,788.9,234.5z M788.9,527c-77.1,0-139.6-62.5-139.6-139.6c0-77.1,62.5-139.6,139.6-139.6
		s139.6,62.5,139.6,139.6C928.6,464.5,866,527,788.9,527z"/>
	<path class="st3" d="M812.1,207.3l-14.6,9.6c-3.2-0.2-6.4-0.3-9.6-0.3c-94.9,0-171.9,77-171.9,171.9c0,19.1,3.1,37.6,8.9,54.8
		c-3.1,2.8-6.2,5.7-8.8,8.2c-7.2-19.6-11.1-40.8-11.1-62.9c0-101,81.9-182.9,182.9-182.9C796.1,205.7,804.2,206.2,812.1,207.3z"/>
	<g>
		
			<rect x="693.7" y="179.1" transform="matrix(0.9325 -0.361 0.361 0.9325 -29.001 267.9849)" class="st4" width="18" height="64.9"/>
	</g>
	<path class="st4" d="M625.7,65.2c-1.7,2.2-1.5,10.2-1.1,11.7c0.4,1.5,4.4,7.9,4.4,7.9s29.1-10.6,33.5-10.8
		c4.4-0.2,38.6-1.3,42.8-2.9s9.7-20.1,6-25.6s-33.5-9.5-38.8-9.3S630.5,59.1,625.7,65.2z"/>
	<path class="st5" d="M646.5,38.4c0,0,8.1,19.4,13,28.1c5,9,22.8,4.3,18.6-8.1c-2.8-8.5-14-33.7-16.2-38.2
		c-1.2-2.6-6.9-6.8-12.5-4.8c-11.8,4.3-26.9,10.2-33.9,13.4c-8.8,4-2.8,21.5,9.2,17.1C637.1,41.4,646.5,38.4,646.5,38.4z"/>
	<path class="st3" d="M657.5,75.3c0,0-8.8,1.4-16.7,4.3c-7.9,3-11.9,5.3-11.9,5.3l3.2,10.9c0,0-95.2,65.2-120.2,68.2
		c-25,3-129.9-8-138.9-10.6c-9-2.5-11.6-7.4-13.4-12c-1.9-4.6-23.4-70-23.4-70l-15.8,5.6c0,0,64.9,207.8,66,217.8
		c1.1,10-6.5,65.1-8.8,67.2c-2.3,2.1-4.4,8.3-13.2,9.4c-8.8,1.1-174.1,1.5-177.4,1.8c-6.1,0.6-6.8,12.1,0.9,14.4
		s243.2,46.4,251.6,45.6c8.3-0.9,22-20.5,24.8-27.4c2.8-6.8,36.2-130.3,50.7-149.2c14.5-18.9,22.9-25.9,40.5-37.8
		c17.6-11.9,86.8-64.2,92.8-64.2s6.4,2.7,8.1,6c1.7,3.3,5.4,13.1,5.4,13.1s8.1-3.9,11.8-1.7c3.7,2.3,10,17.2,10,17.2l17.6-7.9
		L657.5,75.3z M501,199c-37.7,23.1-89.7,54.9-91.5,55.1c-0.2,0-0.4,0-0.6,0c-3.1-0.7-9.3-8.7-15.4-15.3c-6.5-7.1-17.8-50.2-20-56.1
		c-2.2-5.9,3.9-10.5,6.5-10.5c0,0,120.2,12.8,127.7,12.8c7.4,0,31-9.2,31.8-9.5C538.7,175.9,522.1,186.1,501,199z M644.8,127.4
		c-0.5,0.9-2,3.3-4.7,3.3c-2.7,0-9.6-0.6-20,2.3c-10.4,2.9-18.2,6.8-18.8,6.6c-0.6-0.2-1.2-0.6-0.9-1.2c0,0,34.1-20.4,35.5-20.7
		c1.3-0.3,4.8-0.2,6,1.5C643.2,120.7,645.3,126.4,644.8,127.4z"/>
	<path class="st4" d="M501,199c-11.6,43.7-47.2,177.6-49.2,184.4c-2.4,8.2-6.4,9.3-9,9.8c-2.6,0.5-26.8,2.1-32.6,0.3
		c-5.8-1.9-25.7-12.5-25.2-18.3c0.5-5.8,22.8-87.2,24.1-96c0.8-5.1,0.3-16.5-0.3-25.1c0.2,0,0.4,0.1,0.6,0
		C411.3,253.9,463.3,222.1,501,199z"/>
	<path class="st1" d="M435,361.5c-27.3,0-49.5,22.2-49.5,49.5s22.2,49.5,49.5,49.5s49.5-22.2,49.5-49.5S462.3,361.5,435,361.5z
		 M467.6,403.8h-27.3v-26.1c0-4,3.9-6.9,7.7-5.6c11.4,3.8,20.6,12.5,25,23.5C474.6,399.5,471.8,403.8,467.6,403.8z M427.2,378.6
		v25.2h-24.8c-4.2,0-7-4.2-5.4-8.1c4.1-10.1,12.1-18.2,22.1-22.5C422.9,371.6,427.2,374.4,427.2,378.6z M401.8,416.9h25.3v26.5
		c0,4.2-4.3,7-8.2,5.4c-10.6-4.5-18.9-13.3-22.7-24.2C394.9,420.8,397.8,416.9,401.8,416.9z M440.3,444.3v-27.4h27.8
		c4,0,6.9,4,5.6,7.8c-4.2,11.9-13.7,21.2-25.7,25.2C444.2,451.2,440.3,448.3,440.3,444.3z"/>
	<g>
		<path class="st0" d="M491.9,483.7c-2.5,0-5.1-1-7-3l-59.6-62.2c-3.6-3.8-4.8-11.6,0.4-15.9c5.3-4.4,13.9-3.8,17.5,0l55.5,65.2
			c3.6,3.8,3.4,9.9-0.5,13.4C496.6,482.8,494.2,483.7,491.9,483.7z"/>
	</g>
	<path class="st1" d="M520.1,494.9h-47.3c-6.4,0-11.6-5.2-11.6-11.6l0,0c0-6.4,5.2-11.6,11.6-11.6h47.3c6.4,0,11.6,5.2,11.6,11.6
		l0,0C531.7,489.7,526.5,494.9,520.1,494.9z"/>
	<g>
		<path class="st3" d="M196.5,198.8c-78.4,0-145.5,48.1-173.4,116.5c1.1,7.4,1,19.4,2.9,19.2c1.4-0.2,6.2-6.2,10.4-11.7
			c0.8-2.1,1.7-4.2,2.6-6.3c26.7-60.3,87.1-102.5,157.4-102.5c92,0,167.1,72.2,171.8,163c5.4-0.8,11.2-1.7,15-2.4
			C377.5,276.5,296,198.8,196.5,198.8z"/>
	</g>
	<g>
		<path class="st4" d="M197.9,501.5c-62.9,0-114.1-51.2-114.1-114.1c0-1.7,1.3-3,3-3s3,1.3,3,3c0,59.6,48.5,108.1,108.1,108.1
			c1.7,0,3,1.3,3,3S199.5,501.5,197.9,501.5z"/>
	</g>
	<path class="st1" d="M813.7,387.4c0,13.7-11.1,24.8-24.8,24.8s-24.8-11.1-24.8-24.8c0-13.7,11.1-24.8,24.8-24.8
		S813.7,373.7,813.7,387.4z"/>
	<g>
		<path class="st4" d="M788.9,501.5c-62.9,0-114.1-51.2-114.1-114.1c0-1.7,1.3-3,3-3s3,1.3,3,3c0,59.6,48.5,108.1,108.1,108.1
			c1.7,0,3,1.3,3,3S790.6,501.5,788.9,501.5z"/>
	</g>
	<polygon class="st3" points="63.9,254.5 25,277.5 23.1,315.3 26.2,317.7 56.8,278.5 	"/>
	<path class="st6" d="M289.3,61c0,0,11.3,5.7,13.6,6.6c2.3,0.9,17.6,9.3,17.6,9.3s15.5-4.6,15.8-5.6s5-8.7,5-8.7l19.6-16.2
		c0,0-28.3-2.6-40.4,0.2C308.4,49.5,287.4,57.2,289.3,61z"/>
	<path class="st5" d="M396.4,48.3c-0.2,0.6-0.6,1-1.1,1.1c-2.5,0.8-50.8-0.9-64.6,0.4c-13.8,1.3-36.8,12.3-44.2,13.4
		c-7.4,1.1-32.7-20.2-32.7-20.2c-2.5-2.5-0.8-12.7,4.5-15.1c0.7-0.3,1.5-0.6,2.5-0.8c6.9-1.3,21.4-0.1,37.7,1.3
		c18.7,1.7,69.3,0.8,74.8,0.9c5.5,0.2,16.6,2.1,20.2,7.4C396.4,41,397.3,46,396.4,48.3z"/>
	<path class="st1" d="M396.4,48.3c-1.1-0.2-2.1-0.6-2.8-1.1c-2.7-1.9-3.3-4.6-8.1-8.9c-4.8-4.2-27.8-2-42.2-1.3
		c-14.4,0.6-48.5,3.4-64.7,0.1c-10.8-2.2-15.7-6.9-17.6-10c6.9-1.3,21.4-0.1,37.7,1.3c18.7,1.7,69.3,0.8,74.8,0.9
		c5.5,0.2,16.6,2.1,20.2,7.4C396.4,41,397.3,46,396.4,48.3z"/>
	<g>
		<path class="st3" d="M759.7,390.6l-56-144.5l21.4-8.3l56,144.5c0,0,3.2,6.1-8,9.8C761.9,395.8,759.7,390.6,759.7,390.6z"/>
	</g>
	<path class="st3" d="M189.7,353.2c0,0,15.6,25.7,19.2,27.8c3.6,2.1,13.7,0.2,13.1-3c-0.6-3.2-16.8-34.8-16.8-34.8l-9.1,5.4
		C196,348.7,190.5,353.6,189.7,353.2z"/>
</g>
</svg>
