<?xml version="1.0" encoding="utf-8"?>
<!-- Generator: Adobe Illustrator 24.2.3, SVG Export Plug-In . SVG Version: 6.00 Build 0)  -->
<svg version="1.1" id="Layer_1" xmlns="http://www.w3.org/2000/svg" xmlns:xlink="http://www.w3.org/1999/xlink" x="0px" y="0px"
	 viewBox="0 0 991 627" style="enable-background:new 0 0 991 627;" xml:space="preserve">
<style type="text/css">
	.st0{fill:#474747;}
	.st1{fill:#B7B7B7;}
	.st2{fill:#5A5A5A;}
	.st3{fill:#AAAAAA;}
	.st4{fill:#EAEAEA;}
	.st5{fill:#16A4DE;}
	.st6{fill:#9E9E9E;}
	.st7{fill:#3F3F3F;}
	.st8{fill:#2B2B2B;}
	.st9{fill:#E3E5E4;}
	.st10{fill:none;}
</style>
<g>
	<g>
		<path class="st0" d="M409.2,422.3h-42.6c-3.7,0-6.7-3-6.7-6.7v-6.9c0-3.7,3-6.7,6.7-6.7h42.6c3.7,0,6.7,3,6.7,6.7v6.9
			C415.9,419.3,412.9,422.3,409.2,422.3z"/>
	</g>
	<g>
		<path class="st1" d="M434.4,485.8c10.7,8.4,28.8-3.7,19.3-18.6c-9.5-14.9-57.2-51.2-62.4-56c-6.7-6.2-18,0.8-15.1,6.9
			C379.1,424.4,427.3,480.3,434.4,485.8z"/>
	</g>
	<g>
		<path class="st2" d="M288.8,338.2l-2.5-3.1c3.5-2.8,34.5-27.6,44.4-28c2.3-0.1,6,1.4,12.1,3.9c21.8,9,72.8,29.9,133.8-1.5
			c27.2-14,85-48.5,138.6-84.7c62.7-42.4,101-74.6,108-90.6c15.8-36.2-4.1-56.3-5-57.1l2.8-2.9c0.2,0.2,22.8,22.7,5.8,61.6
			C710.1,174.3,535.2,283.8,478.5,313c-24.9,12.8-48.1,17.2-68.5,17.2c-30.9,0-55.2-10-68.7-15.5c-4.8-2-9-3.7-10.4-3.6
			C324.4,311.3,302.2,327.4,288.8,338.2z"/>
	</g>
	<g>
		<g>
			<path class="st2" d="M190.9,264.5c-96.4,0-174.6,78.2-174.6,174.6c0,96.4,78.2,174.6,174.6,174.6s174.6-78.2,174.6-174.6
				C365.4,342.7,287.3,264.5,190.9,264.5z M190.9,589.9C107.6,589.9,40,522.4,40,439.1c0-83.3,67.5-150.8,150.8-150.8
				s150.8,67.5,150.8,150.8C341.7,522.4,274.1,589.9,190.9,589.9z"/>
		</g>
		<g>
			<path class="st3" d="M190.9,285.2c-85,0-153.9,68.9-153.9,153.9c0,85,68.9,153.9,153.9,153.9s153.9-68.9,153.9-153.9
				C344.8,354.1,275.9,285.2,190.9,285.2z M190.9,572c-73.4,0-133-59.5-133-133c0-73.4,59.5-133,133-133s133,59.5,133,133
				C323.8,512.5,264.3,572,190.9,572z"/>
		</g>
		<g>
			<path class="st4" d="M190.2,547c-59.2,0-107.3-48.1-107.3-107.3c0-1.9,1.6-3.5,3.5-3.5s3.5,1.6,3.5,3.5
				c0,55.3,45,100.3,100.3,100.3c1.9,0,3.5,1.6,3.5,3.5S192.2,547,190.2,547z"/>
		</g>
	</g>
	<g>
		<g>
			<path class="st2" d="M800.7,264.5c-96.4,0-174.6,78.2-174.6,174.6c0,96.4,78.2,174.6,174.6,174.6s174.6-78.2,174.6-174.6
				C975.3,342.7,897.1,264.5,800.7,264.5z M800.7,589.9c-83.3,0-150.8-67.5-150.8-150.8c0-83.3,67.5-150.8,150.8-150.8
				s150.8,67.5,150.8,150.8C951.5,522.4,884,589.9,800.7,589.9z"/>
		</g>
		<g>
			<path class="st3" d="M800.7,285.2c-85,0-153.9,68.9-153.9,153.9c0,85,68.9,153.9,153.9,153.9s153.9-68.9,153.9-153.9
				C954.6,354.1,885.7,285.2,800.7,285.2z M800.7,572c-73.4,0-133-59.5-133-133c0-73.4,59.5-133,133-133s133,59.5,133,133
				C933.7,512.5,874.1,572,800.7,572z"/>
		</g>
		<g>
			<path class="st4" d="M800.1,547c-59.2,0-107.3-48.1-107.3-107.3c0-1.9,1.6-3.5,3.5-3.5s3.5,1.6,3.5,3.5
				c0,55.3,45,100.3,100.3,100.3c1.9,0,3.5,1.6,3.5,3.5S802,547,800.1,547z"/>
		</g>
	</g>
	<g>
		<path class="st2" d="M677.2,90c0.2-0.6,0.6-36.9,0.6-36.9S648.6,35.2,640,28.9c-9.9-7.2-0.1-28.8,15.6-18.1
			c14.5,9.9,59.4,48.6,67.4,56.1c7,6.7-3.2,17.1-14.6,7.4c-5.5-4.7-12.1-9.9-12.1-9.9s1.7,25.5,1.5,29.3c-0.2,3.8-4.1,8.5-4.1,8.5
			l-13.2-9.7L677.2,90z"/>
	</g>
	<g>
		<circle class="st2" cx="190.9" cy="439.1" r="24.1"/>
	</g>
	<g>
		<path class="st4" d="M199.1,430.2c-1.3,2.8,0.9,8,3.4,9.1c0.4,0.2,4.4,0.7,10.9,1.4c36.5,4.1,151.7,15.2,151.7,15.2l-2.9,15.9
			c0,0-158.4-15.1-161.2-15.9c-0.3-0.1-0.6-0.2-1-0.4c-3.7-1.5-12-6.1-12.1-6.6c-0.1-0.5,2.5-6.5,2.9-7.1c0.4-0.7-3-19.5-2.3-21.5
			c0,0,0.1-0.1,0.2-0.2c7.1-5.8,183.5-112.3,183.5-112.3s3.4,1,5.6,4.3c2.2,3.4-0.6,11.7-0.6,11.7s-133.1,78-169.2,100.5
			C202.6,427.7,199.3,429.8,199.1,430.2z"/>
	</g>
	<g>
		<path class="st5" d="M670.2,141.8l-28,11c0,0,4,10,3,13s-187,120-203,124s-46,1-46,1l-5-4l-3-8l-19,8l4,16l-1,5c0,0,3,1,4,4
			s1,12,1,12l4,1l45,132l-61-4l-3,19l60,5c0,0,8,6,21,5s19-11,19-11l212-228l7,8l29-12L670.2,141.8z M447.2,440.8c-3,0-6-4-6-4
			l-39-121c0,0,26,3,53-7s200-121,200-121l8,18C663.2,205.8,450.2,440.8,447.2,440.8z"/>
	</g>
	<g>
		<polygon class="st6" points="670.2,141.8 666.2,131.8 641.3,141.7 642.2,152.8 		"/>
	</g>
	<g>
		<polygon class="st4" points="666.2,131.8 664.7,125.7 693.7,102.1 677.6,89.3 634.1,120.7 641.3,141.7 		"/>
	</g>
	<g>
		<polygon class="st2" points="388.2,278.8 369.2,286.8 341.3,197.8 336.6,182.9 354.1,176.8 360.3,195.4 		"/>
	</g>
	<g>
		<path class="st7" d="M435.6,160.9c-2.7,1-75.9,21.2-99.2,24.3c-2.7,0.4-4.7,0.5-5.9,0.4c-11.4-1.4-47.1-20.6-50.9-28.3
			c-3.9-7.8,0.5-14.4,2.3-14.4c9.6,0.2,125.2,0,141,2.5C438.6,147.8,438.6,159.7,435.6,160.9z"/>
	</g>
	<g>
		<path class="st8" d="M336.4,185.2c-2.7,0.4-4.7,0.5-5.9,0.4c-11.4-1.4-47.1-20.6-50.9-28.3c-3.9-7.8,0.5-14.4,2.3-14.4
			c0,0,40.9,11.4,47.1,20.6C333.9,170.8,337.9,179.6,336.4,185.2z"/>
	</g>
	<g>
		<path class="st4" d="M213.4,440.7c-1.2,7.1-6.5,12.9-13.4,14.8c-1.6,0.4-3.3,0.7-5,0.7c-10.3,0-18.6-8.3-18.6-18.6
			c0-8.1,5.1-14.9,12.3-17.5c2-0.7,4.1-1.1,6.3-1.1c5,0,9.6,2,13,5.3c-5.5,3.4-8.7,5.6-8.9,5.9c-1.3,2.8,0.9,8,3.4,9.1
			C202.9,439.5,206.9,440,213.4,440.7z"/>
	</g>
	<g>
		<circle class="st4" cx="687.2" cy="93.4" r="9"/>
	</g>
	<g>
		<polygon class="st7" points="360.3,195.4 341.3,197.8 336.6,182.9 354.1,176.8 		"/>
	</g>
	<g>
		<path class="st9" d="M437.8,428.3c-26.9,0-48.7,21.8-48.7,48.7c0,26.9,21.8,48.7,48.7,48.7s48.7-21.8,48.7-48.7
			C486.5,450.1,464.7,428.3,437.8,428.3z M437.8,513.5c-20.1,0-36.5-16.3-36.5-36.5c0-20.2,16.3-36.5,36.5-36.5
			c20.1,0,36.5,16.3,36.5,36.5C474.3,497.1,458,513.5,437.8,513.5z"/>
	</g>
	<g>
		<path class="st10" d="M437.7,446c-17,0-30.7,13.8-30.7,30.7c0,17,13.8,30.7,30.7,30.7c17,0,30.7-13.8,30.7-30.7
			C468.4,459.7,454.7,446,437.7,446z"/>
	</g>
	<g>
		<path class="st2" d="M437.7,438.9c-20.9,0-37.8,16.9-37.8,37.8s16.9,37.8,37.8,37.8s37.8-16.9,37.8-37.8S458.6,438.9,437.7,438.9z
			 M437.7,507.4c-17,0-30.7-13.8-30.7-30.7c0-17,13.8-30.7,30.7-30.7c17,0,30.7,13.8,30.7,30.7C468.4,493.7,454.7,507.4,437.7,507.4
			z"/>
	</g>
	<g>
		<path class="st2" d="M437.7,441.8c-19.3,0-34.9,15.6-34.9,34.9c0,19.3,15.6,34.9,34.9,34.9s34.9-15.6,34.9-34.9
			C472.6,457.4,457,441.8,437.7,441.8z M407.3,472.3c0.7-5.2,2.8-10,5.8-14c0.8-1.1,2.5-1.2,3.5-0.2l16.9,16.9h-23.9
			C408.2,474.9,407.1,473.7,407.3,472.3z M413.1,495.1c-3-4-5.1-8.8-5.8-14c-0.2-1.4,0.9-2.6,2.3-2.6h23.8l-16.9,16.9
			C415.6,496.3,414,496.2,413.1,495.1z M435.9,504.8c0,1.4-1.2,2.5-2.6,2.3c-5.2-0.7-10-2.8-14-5.8c-1.1-0.8-1.2-2.5-0.2-3.5
			l16.8-16.8V504.8z M435.9,472.4l-16.9-16.9c-1-1-0.9-2.6,0.2-3.5c4-3,8.8-5.1,14-5.8c1.4-0.2,2.6,0.9,2.6,2.3V472.4z M462.4,458.3
			c3,4,5.1,8.8,5.8,14c0.2,1.4-0.9,2.6-2.3,2.6H442l16.9-16.9C459.9,457.1,461.5,457.2,462.4,458.3z M439.5,448.5
			c0-1.4,1.2-2.5,2.6-2.3c5.2,0.7,10,2.8,14,5.8c1.1,0.8,1.2,2.5,0.2,3.5l-16.9,16.9V448.5z M456.1,501.3c-4,3-8.8,5.1-14,5.8
			c-1.4,0.2-2.6-0.9-2.6-2.3V481l16.8,16.8C457.3,498.8,457.2,500.5,456.1,501.3z M468.1,481.1c-0.7,5.2-2.8,10-5.8,14
			c-0.8,1.1-2.5,1.2-3.5,0.2l-16.3-16.3l-0.6-0.6h23.8C467.3,478.5,468.3,479.7,468.1,481.1z"/>
	</g>
	<g>
		<path class="st3" d="M442.9,463.1c-11.6-6.9-28.1,7.3-16.9,20.8s70,46.2,70,46.2s18.1,1.7,14.4-4S450.6,467.7,442.9,463.1z"/>
	</g>
	<g>
		<path class="st2" d="M526,547.2h-54.5c-3.7,0-6.7-3-6.7-6.7v-11.2c0-3.7,3-6.7,6.7-6.7H526c3.7,0,6.7,3,6.7,6.7v11.2
			C532.7,544.2,529.7,547.2,526,547.2z"/>
	</g>
	<g>
		<circle class="st2" cx="804.2" cy="441.6" r="22.8"/>
	</g>
	<g>
		<path class="st4" d="M708.8,239.4c0,0,20.4,37.1,26.3,47.1c5.9,10,71.2,140.8,75.8,148.3c4.6,7.5,5.3,10.9,0.3,14.6
			c-4.9,3.7-11.9,2.4-20.4-11.5c-8.5-13.9-109.6-187.1-109.6-187.1L708.8,239.4z"/>
	</g>
</g>
</svg>
