<?xml version="1.0" encoding="utf-8"?>
<!-- Generator: Adobe Illustrator 24.3.0, SVG Export Plug-In . SVG Version: 6.00 Build 0)  -->
<svg version="1.1" id="Layer_1" xmlns="http://www.w3.org/2000/svg" xmlns:xlink="http://www.w3.org/1999/xlink" x="0px" y="0px"
	 viewBox="0 0 1009 630" style="enable-background:new 0 0 1009 630;" xml:space="preserve">
<style type="text/css">
	.st0{fill:none;stroke:#EAEAEA;stroke-width:7;stroke-linecap:round;stroke-linejoin:round;stroke-miterlimit:10;}
	.st1{fill:#5A5A5A;}
	.st2{fill:#AAAAAA;}
	.st3{fill:#969696;}
	.st4{fill:#EAEAEA;}
	.st5{fill:#3F3F3F;}
	.st6{fill:#16A4DE;}
	.st7{fill:none;stroke:#16A4DE;stroke-width:5;stroke-linecap:round;stroke-linejoin:round;stroke-miterlimit:10;}
</style>
<g>
	<path class="st0" d="M119.9,441.6c0,57.3,46.5,103.8,103.8,103.8"/>
	<path class="st1" d="M223.6,266.8C127.2,266.8,49,345,49,441.4C49,537.8,127.2,616,223.6,616s174.6-78.2,174.6-174.6
		C398.2,345,320,266.8,223.6,266.8z M223.6,592.2c-83.3,0-150.8-67.5-150.8-150.8c0-83.3,67.5-150.8,150.8-150.8
		s150.8,67.5,150.8,150.8C374.4,524.7,306.9,592.2,223.6,592.2z"/>
	<path class="st2" d="M224.3,287.5c-84.7,0-153.4,68.7-153.4,153.4c0,84.7,68.7,153.4,153.4,153.4s153.4-68.7,153.4-153.4
		C377.7,356.2,309,287.5,224.3,287.5z M224.3,580.9c-77.3,0-140-62.7-140-140c0-77.3,62.7-140,140-140s140,62.7,140,140
		C364.3,518.2,301.6,580.9,224.3,580.9z"/>
</g>
<path class="st3" d="M406.2,424.7l-17.8-0.2c-0.1-0.9-0.1-1.8-0.2-2.8c-33.2-2.7-144.3-13.8-147.5-13.8c-3.8,0-7-2.3-11.9-6.3
	c-4.9-3.9-14.7-4.5-14.7-4.5c-5.1,0-9.8,1.7-12.1,0.6c-0.9-0.4-1.1-2.8-2.1-5c-9.9-37.5-37.6-66.7-76.8-66.7c-4.1,0-8.2,0.3-12.2,1
	c-5.7,0.1-22.3,4.8-36.8,12.3c-11.6,6-21.3,14.9-26.8,17.3c-0.4,0.2-0.8,0.4-1.2,0.5c-0.7,0.3-1.3,0.5-2,0.8
	c-16.6,5.9-29.2-3.5-29.8-5.4c-0.7-2,7.7-4.1,14.2-8.4c6.1-4.1,24.9-50.7,24.9-50.7s12.8,0.8,28.6,0c4.7-0.2,20-14,25.9-17.9
	c30.1-20.1,70.3-29.8,109.2-29.8C318.1,245.8,400.7,325,406.2,424.7z"/>
<path class="st4" d="M95.7,306.6c-3.2,2.8-3,10.8,3.2,10.1c6.2-0.7,38.5-10.8,73.4,11.2s37.1,50.7,43.3,55
	c6.2,4.4,11.5,2.3,13.3,0.2c1.8-2.1,82.5-69.9,86.9-73.6c4.4-3.7,2.1-6.9-2.3-10.5c-4.4-3.7-43.8-36.2-104.1-36
	C142.8,263.3,99.5,303.3,95.7,306.6z"/>
<path class="st4" d="M346.6,337.2c-9.6,6.3-69.8,51.7-73,54.4c-3.3,2.7-2.5,8.5,3.8,10.1c6.3,1.6,102,7.9,105.6,6.3
	c3.6-1.6,6-3,5.7-8.8c-0.3-5.7-7.4-23.3-12.9-35s-16.4-25.2-18.3-27.4C355.6,334.8,351.2,334.2,346.6,337.2z"/>
<path class="st5" d="M672.2,176.1l-5.1-11.5l10.1-6.4c0,0-30.3-96.1-32-106.6c-1.7-10.5-2.2-9.6,2.4-13.5c2.2-1.9,25.9,5.5,29,14
	c3.3,9-17.7,7-14.4,22.1c1,4.8,35.1,81.4,35.1,81.4l3,12.8L672.2,176.1z"/>
<path class="st6" d="M734.1,211.5c0.2-2.9-7.9-3.2-7.9,0.5c0,3.7,17.2,49.7,17.2,49.7l-43.6,15.1c0,0-2.5-6.4-4-10.4
	c-1.4-3.6-2.5-7.4-5.4-5.4c-1.4,1-24.9,36.4-50.8,75.7c-26.8,40.6-56.3,85.3-72.4,98.5c-26.1,21.5-58.5,30.9-58.5,30.9l-14.4-28.4
	c0,0,16.1-4.9,30.1-10.7c14-5.8,28.8-20.6,31.7-23.9c2.9-3.3,0.8-5.8-4.5-4.5c-5.3,1.2-30.5,5.5-53.5,3.7c-20.6-1.6-34.6-5.4-39.1-7
	c-4.5-1.6-7.4-4.5-7,0.4s9.1,27.2,9.1,27.2l-33.8,6.2c0,0-3.9-17-23.5-69.9c-25.3-68.2-100.4-99.4-103-99.8c-2.6-0.3-9.5,0-10.8-1
	c-1.3-1-1.4-55.5-1.3-58.1c0.2-2.6,21-2.4,21.4,0.9c0.4,3.2,0.4,44.7,3.7,48.5c2.5,2.8,25.1,11.3,45,27.5
	c28.4,23.2,42.4,50.1,44.6,53.9c4,7,6,3.7,4.8-0.2c-0.9-2.8-21.9-66.3-29.4-89.1l21-6.1l31.2,96.6c0,0,28.8,32.5,78.2,37.1
	c49.4,4.5,84.8-21.8,84.8-21.8s76.6-124,80.3-129.3c3.7-5.4,7-11.1,6.6-14.4c-0.4-3.3-8.6-27.6-8.6-27.6l28-7.8
	c0,0,2.1,5.8,3.3,11.1c1.2,5.3,8.2,14.4,11.9,14.4c3.7,0,49.3-11,49.3-11l-1,45.2l-29.7,0C734.1,228,733.9,215,734.1,211.5z"/>
<circle class="st2" cx="817.9" cy="440.9" r="33.8"/>
<g>
	<path class="st0" d="M713.5,441.6c0,57.3,46.5,103.8,103.8,103.8"/>
	<path class="st1" d="M817.9,266.3c-96.4,0-174.6,78.2-174.6,174.6c0,96.4,78.2,174.6,174.6,174.6s174.6-78.2,174.6-174.6
		C992.5,344.5,914.3,266.3,817.9,266.3z M817.9,591.8c-83.3,0-150.8-67.5-150.8-150.8c0-83.3,67.5-150.8,150.8-150.8
		s150.8,67.5,150.8,150.8C968.7,524.2,901.2,591.8,817.9,591.8z"/>
	<path class="st2" d="M817.9,287.5c-84.7,0-153.4,68.7-153.4,153.4c0,84.7,68.7,153.4,153.4,153.4s153.4-68.7,153.4-153.4
		C971.4,356.2,902.7,287.5,817.9,287.5z M817.9,580.9c-77.3,0-140-62.7-140-140c0-77.3,62.7-140,140-140s140,62.7,140,140
		C957.9,518.2,895.2,580.9,817.9,580.9z"/>
</g>
<path class="st1" d="M245.5,444.9c-0.4,1.4,1.4,8.9,0.4,14.2s-0.7,12.1-0.7,12.1l167.1,28l33.7,12.4c0,0,11.7,14.5,8.5,14.9
	s-230.3-42.2-249.8-50.7s-24.8-45.8,2.1-51.4s250.5-6.7,256.5-5.7c6,1.1,9.6,9.2,6,11c-3.5,1.8-46.1,13.1-50,12.8
	C415.7,442.1,245.9,443.5,245.5,444.9z"/>
<path class="st6" d="M359,296.4c0,0-41.5,27.2-79.9,60.4c-35.9,31-64.6,61.2-74.3,75c-9.7,13.8-4.1,38,26.7,38.2
	c38.1,0.2,180,6.7,180,6.7l1.5-17.5c0,0-151.9-1-165.7-3.6c-13.8-2.6-24.6-23.1-9.5-39.5c6.3-6.9,37.1-38,68.9-61.4
	c44.1-32.4,89.9-57.1,92.2-55.8c3.9,2.2,18.7-6.2,17.4-8.8s-15.4-14.7-24-11.6C383.6,281.4,371.1,288.9,359,296.4z"/>
<circle class="st2" cx="213.5" cy="460" r="13.7"/>
<path class="st1" d="M461.5,418c-30.5,0-55.2,24.7-55.2,55.2c0,30.5,24.7,55.2,55.2,55.2s55.2-24.7,55.2-55.2
	C516.7,442.7,492,418,461.5,418z M461.5,509.8c-20.2,0-36.6-16.4-36.6-36.6c0-20.2,16.4-36.6,36.6-36.6c20.2,0,36.6,16.4,36.6,36.6
	C498.1,493.4,481.7,509.8,461.5,509.8z"/>
<polygon class="st1" points="457,480.6 457.7,514.5 466.3,515 464.1,484.4 485.2,508.3 495.9,495.4 472.5,469.6 481.1,434 
	457.7,428 459.6,468.6 419.4,472.2 424.9,493.3 "/>
<circle class="st2" cx="462" cy="473.7" r="24.9"/>
<path class="st2" d="M544.4,514.5c-8.2-5.2-71.4-43.4-80.6-48.2c-9-4.7-19.8,8.6-9.6,17.1c10.1,8.5,78.5,44,84.3,47
	C546.4,534.4,556.3,522,544.4,514.5z"/>
<path class="st5" d="M561.9,537.2h-37.6c-5.9,0-10.7-4.8-10.7-10.7l0,0c0-5.9,4.8-10.7,10.7-10.7h37.6c5.9,0,10.7,4.8,10.7,10.7l0,0
	C572.6,532.4,567.8,537.2,561.9,537.2z"/>
<path class="st6" d="M663.9,49.9l8.7-7.8c0,0,5.7,6,9.2,17c3.6,11,36.3,115.3,38.2,123.8c2.1,9.2-6.6,12.8-11.3,9.5
	c-4.8-3.3-39.4-127.4-41.5-132.5C665.1,55,663.9,49.9,663.9,49.9z"/>
<path class="st7" d="M692.3,106.3c0,0,41.3-11.5,74.9-20.7c23.3-6.4,40.8-13.1,47.1-8.4c6.1,4.6,6,10.6,6.6,21.4
	c0.6,10.7,2.5,43,2.8,48.1c0.3,6.2-3.8,18.5-21.1,24.2c-17.3,5.7-93.5,24.1-93.5,24.1"/>
<path class="st7" d="M823,139.9c0,0-2.3,5.1-35,14.6s-77.4,18.6-77.4,18.6"/>
<path class="st7" d="M821.8,115.1c0,0-1.7,4.5-34.6,14.7s-81,20.4-81,20.4"/>
<path class="st7" d="M819.8,94c0,0,1.4,1.8-36.5,13s-82.9,21.8-82.9,21.8"/>
<line class="st7" x1="784.1" y1="81" x2="800.9" y2="170.6"/>
<line class="st7" x1="751.2" y1="91" x2="772.7" y2="177.8"/>
<line class="st7" x1="720.4" y1="99.3" x2="745.3" y2="184.1"/>
<path class="st5" d="M680.5,36.8c1.1-1.1-1.5-20.3-15.7-23.4c-14.2-3.1-14.6,2.4-16.4,8.1c-1.7,5.7,13.5,27.1,20.3,25.3
	S677.4,40,680.5,36.8z"/>
<circle class="st1" cx="652.5" cy="29.6" r="18.8"/>
<path class="st1" d="M651.9,19.6c0,0-21.3-8.3-30.2-10.1s-17.8,16.1-5.3,21.7c13.8,6.1,30,9.6,34.2,10.3
	C654.7,42.2,665.7,27.3,651.9,19.6z"/>
<path class="st4" d="M399.7,235.6l-21,6.1c-1.7-5-2.7-8-2.7-8l21.1-6L399.7,235.6z"/>
<polygon class="st4" points="380.2,234.7 350.6,153 366.1,147 393.8,230.6 "/>
<path class="st5" d="M308.9,141.9c-0.5,1.3,1.6,16.8,5.1,17.6c3.5,0.8,39,1.1,46.7,0.5s24.3-16.5,25.3-21.3S314.4,128.6,308.9,141.9
	z"/>
<path class="st1" d="M297,137.3c0,0,53.3,21.4,56.6,21.2c10.3-0.8,21-18.3,36.7-20.5c15.8-2.3,39.9-5.6,44.2-7.4
	c4.3-1.8-6.1-24.1-21.9-25.9c-15.8-1.8-46.6,7-58.8,5c-12.2-2-32.7-7.4-45.3-1.6C295.9,113.8,294.1,133.2,297,137.3z"/>
<path class="st3" d="M811.4,257.4c-102.1,0-184.8,82.7-184.8,184.8c0,8.8,0.6,17.4,1.8,25.9c1.2-0.8,24.6-10,55.5-11.5
	c45-2.1,102.8,3.4,104.8,2.6c3.4-1.3,1.1-7.6,2.9-11.8c1.8-4.2,6.9-8.7,4-13.6c-2.9-5-53.3-59-64.6-123.3c-0.9-4.9-2.8-8.4-2.9-10.8
	c25.5-16.1,50.9-22.5,83.3-22.5c7.4,0,14.7,0.5,21.8,1.4c3.7-4.1,8.4-10.4,11.4-18.1C833.9,258.4,822.8,257.4,811.4,257.4z"/>
<path class="st4" d="M651.3,449.1c3.5-0.8,14.9-3.1,30.8-4.5c22.8-2,58.8,1.4,62,1.1c3.1-0.3,5.1-1.4,8-8.5
	c2.8-7.1,8.2-18.8,9.4-21.3c1.1-2.6,1.1-5.4-4-12.2c-5.1-6.8-18.2-28.7-25-44.1c-6.8-15.3-14.2-38.4-15.3-41.8
	c-1.1-3.4-5.4-8.4-16.9,0c-11.5,8.4-29.7,26.6-45.7,59C640,406,638.7,436.4,639,443.2C639.2,450,645.8,450.3,651.3,449.1z"/>
<circle class="st1" cx="817.9" cy="440.9" r="17"/>
<path class="st6" d="M714.9,267.7c0,0,27.4,88.5,37,109.5c9.7,20.9,51.1,70.2,58.5,74.1c7.4,3.9,20.4-3.7,11.4-13.9
	c-10.3-11.7-40.6-34.9-55.1-69s-35.6-108-35.6-108L714.9,267.7z"/>
</svg>
