<?xml version="1.0" standalone="no"?>
<!DOCTYPE svg PUBLIC "-//W3C//DTD SVG 20010904//EN"
 "http://www.w3.org/TR/2001/REC-SVG-20010904/DTD/svg10.dtd">
<svg version="1.0" xmlns="http://www.w3.org/2000/svg"
 width="484.000000pt" height="516.000000pt" viewBox="0 0 484.000000 516.000000"
 preserveAspectRatio="xMidYMid meet">

<g transform="translate(0.000000,516.000000) scale(0.100000,-0.100000)"
fill="#FFFFFF" stroke="none">
<path d="M2990 5150 c-156 -33 -345 -193 -324 -275 18 -71 96 -82 255 -34 57
17 131 33 164 36 51 4 65 2 94 -19 52 -34 71 -77 86 -184 8 -52 17 -109 20
-125 6 -26 4 -29 -17 -29 -13 0 -70 11 -128 24 -249 56 -431 161 -477 273 -10
23 -21 43 -24 43 -13 0 -28 -57 -33 -125 -2 -38 -3 -61 0 -50 14 55 52 92 42
40 -3 -13 -1 -22 3 -19 5 3 12 -13 15 -36 4 -22 20 -61 36 -85 16 -24 27 -49
23 -55 -3 -5 -1 -10 6 -10 8 0 10 -18 7 -64 -6 -68 -1 -76 43 -76 16 0 18 -5
13 -25 -4 -16 -2 -25 5 -25 7 0 11 -8 9 -17 -2 -13 5 -19 24 -21 20 -2 30 -10
34 -28 4 -14 17 -29 29 -34 26 -10 100 4 133 26 29 19 42 11 42 -28 0 -48 -26
-91 -117 -190 -102 -110 -147 -175 -170 -243 l-16 -50 -13 30 c-19 45 -17 77
11 137 23 51 24 58 11 94 -7 21 -23 55 -34 74 -11 19 -27 80 -36 134 -25 154
-60 174 -46 26 4 -47 5 -91 3 -98 -5 -11 -26 -23 -83 -46 -8 -3 -28 -15 -45
-25 -29 -18 -30 -20 -27 -87 2 -64 11 -87 113 -309 60 -133 118 -255 128 -272
38 -61 278 -126 619 -167 l52 -7 0 46 c0 25 4 45 8 45 4 0 26 -18 47 -40 21
-22 44 -40 50 -40 15 0 115 103 115 119 0 7 -40 56 -88 109 -49 54 -114 130
-146 169 -62 80 -96 103 -151 103 -70 0 -145 53 -145 102 0 51 102 199 165
238 33 20 41 21 76 11 71 -21 124 -85 215 -256 12 -21 26 -41 31 -42 13 -5 70
100 94 171 47 138 -15 287 -198 477 -46 47 -83 94 -83 103 0 9 -5 25 -12 36
-10 16 -8 32 12 92 34 105 32 168 -8 250 -85 174 -245 262 -412 228z"/>
<path d="M3925 3291 c-9 -41 -79 -117 -147 -162 l-58 -37 98 -72 c219 -164
334 -277 410 -402 67 -111 97 -251 82 -375 -5 -37 -7 -69 -5 -71 13 -14 106 0
190 28 119 40 202 43 283 12 l53 -21 -6 32 c-17 77 -71 230 -116 325 -123 263
-317 488 -554 645 -76 51 -208 127 -218 127 -3 0 -8 -13 -12 -29z"/>
<path d="M2687 3151 c-22 -54 -63 -221 -76 -308 -15 -102 -13 -331 4 -445 18
-120 51 -251 114 -455 83 -266 101 -361 83 -440 l-10 -42 37 -12 c31 -11 89
-12 195 -6 27 2 31 -2 42 -40 37 -125 53 -711 26 -923 -23 -178 -41 -214 -129
-266 -43 -26 -283 -128 -340 -145 -59 -18 -32 -62 34 -58 21 1 63 -1 93 -5 33
-5 117 -2 211 8 118 12 172 13 220 5 35 -6 83 -8 106 -4 77 11 87 54 56 248
-21 131 -13 214 46 472 57 250 65 307 64 440 0 105 -5 136 -36 250 -20 71 -33
133 -29 137 5 5 51 11 103 15 119 7 219 -13 338 -68 46 -22 87 -36 90 -33 3 3
6 78 5 167 -2 306 -69 514 -296 912 -103 181 -144 261 -172 337 l-21 57 -125
-72 c-108 -61 -132 -72 -184 -75 -52 -4 -67 -1 -124 29 l-65 33 -38 -22 c-63
-36 -92 -23 -49 23 l20 21 -33 -4 c-27 -3 -35 1 -47 23 -14 26 -13 28 23 61
27 25 46 34 72 34 26 0 35 4 35 16 0 14 -8 16 -42 11 -24 -3 -54 -9 -67 -13
-37 -11 -23 27 19 49 60 31 121 19 220 -41 108 -67 146 -69 217 -15 115 87
133 105 133 132 l0 26 -212 -3 c-186 -3 -430 9 -479 24 -12 3 -21 -7 -32 -35z"/>
<path d="M1541 2538 c-49 -17 -96 -69 -117 -130 -24 -69 -24 -258 0 -458 10
-80 18 -195 18 -257 0 -98 -3 -118 -25 -167 -29 -63 1 -45 -371 -216 -120 -55
-309 -149 -420 -209 -111 -60 -221 -118 -246 -129 -54 -23 -160 -48 -247 -57
-35 -4 -63 -11 -63 -16 0 -5 5 -9 10 -9 6 0 10 -4 10 -10 0 -5 -10 -10 -22
-10 -13 0 -30 -4 -38 -10 -11 -7 -9 -11 13 -19 16 -6 33 -11 38 -11 16 0 10
-22 -17 -57 -30 -40 -23 -41 58 -8 91 37 109 34 239 -41 240 -139 380 -193
566 -220 59 -9 111 -20 114 -25 3 -6 13 -7 23 -3 14 5 16 -1 15 -47 0 -30 3
-108 9 -174 5 -66 7 -147 4 -181 l-4 -61 128 -5 c110 -4 362 5 281 10 -46 3
-229 52 -258 69 -15 9 -33 28 -39 42 -33 69 -19 265 23 317 18 23 22 25 32 11
10 -14 14 -13 38 6 14 12 34 37 44 56 14 26 32 38 78 56 203 76 390 209 459
327 14 24 33 72 42 108 22 86 10 153 -62 357 -151 426 -177 504 -196 583 -11
48 -21 121 -21 167 -1 96 10 119 86 169 26 17 73 55 105 85 32 30 86 69 120
88 60 33 78 53 66 73 -4 6 -48 9 -108 7 -55 -1 -153 0 -216 4 -77 4 -126 3
-149 -5z m77 -85 c5 -17 -26 -29 -40 -15 -6 6 -7 15 -3 22 9 14 37 9 43 -7z"/>
</g>
</svg>
